<svg width="15" height="15" viewBox="0 0 15 15" fill="none" xmlns="http://www.w3.org/2000/svg">
<path d="M7.09996 0C11.0221 0 14.1999 3.25195 14.1999 7.26562C14.1999 11.2793 11.0221 14.5312 7.09996 14.5312C3.1778 14.5312 0 11.2793 0 7.26562C0 3.25195 3.1778 0 7.09996 0ZM6.27259 4.20703L8.43407 6.32812H3.20643C2.82567 6.32812 2.51934 6.6416 2.51934 7.03125V7.5C2.51934 7.88965 2.82567 8.20312 3.20643 8.20312H8.43407L6.27259 10.3242C5.99489 10.5967 5.98916 11.0508 6.26113 11.3291L6.57605 11.6484C6.84516 11.9238 7.28032 11.9238 7.54657 11.6484L11.3456 7.76367C11.6147 7.48828 11.6147 7.04297 11.3456 6.77051L7.54657 2.87988C7.27746 2.60449 6.8423 2.60449 6.57605 2.87988L6.26113 3.19922C5.98916 3.48047 5.99489 3.93457 6.27259 4.20703Z" fill="#0C58D3" fill-opacity="0.8"/>
</svg>
